<?xml version="1.0" encoding="utf-8"?>
<!-- Generator: Adobe Illustrator 16.0.0, SVG Export Plug-In . SVG Version: 6.00 Build 0)  -->
<!DOCTYPE svg PUBLIC "-//W3C//DTD SVG 1.1//EN" "http://www.w3.org/Graphics/SVG/1.1/DTD/svg11.dtd">
<svg version="1.1" id="Layer_1" xmlns="http://www.w3.org/2000/svg" xmlns:xlink="http://www.w3.org/1999/xlink" x="0px" y="0px"
	 width="612px" height="792px" viewBox="0 0 612 792" enable-background="new 0 0 612 792" xml:space="preserve">
<g>
	<path fill="#FFFF00" d="M190.319,197.773l3.633-11.016h-22.852l5.566-16.699h22.852l7.266-21.738h17.578l-7.266,21.738h11.66
		l7.266-21.738h17.578l-7.266,21.738h22.969l-5.566,16.699h-22.969l-3.633,11.016h22.91l-5.566,16.699h-22.91l-7.266,21.738h-17.578
		l7.266-21.738h-11.66l-7.266,21.738h-17.578l7.266-21.738h-22.91l5.566-16.699H190.319z M211.53,186.758l-3.633,11.016h11.66
		l3.633-11.016H211.53z"/>
</g>
<g>
	<path fill="#CCCC66" d="M185.74,263.563l3.633-11.016h-22.852l5.566-16.699h22.852l7.266-21.738h17.578l-7.266,21.738h11.66
		l7.266-21.738h17.578l-7.266,21.738h22.969l-5.566,16.699h-22.969l-3.633,11.016h22.91l-5.566,16.699h-22.91L219.725,302h-17.578
		l7.266-21.738h-11.66L190.486,302h-17.578l7.266-21.738h-22.91l5.566-16.699H185.74z M206.951,252.547l-3.633,11.016h11.66
		l3.633-11.016H206.951z"/>
</g>
<g>
	<path fill="#999966" d="M181.161,329.72l3.633-11.016h-22.852l5.566-16.699h22.852l7.266-21.738h17.578l-7.266,21.738h11.66
		l7.266-21.738h17.578l-7.266,21.738h22.969l-5.566,16.699H231.61l-3.633,11.016h22.91l-5.566,16.699h-22.91l-7.266,21.738h-17.578
		l7.266-21.738h-11.66l-7.266,21.738h-17.578l7.266-21.738h-22.91l5.566-16.699H181.161z M202.372,318.705l-3.633,11.016h11.66
		l3.633-11.016H202.372z"/>
</g>
<g>
	<path fill="#666666" d="M176.398,395.694l3.633-11.016h-22.852l5.566-16.699h22.852l7.266-21.738h17.578l-7.266,21.738h11.66
		l7.266-21.738h17.578l-7.266,21.738h22.969l-5.566,16.699h-22.969l-3.633,11.016h22.91l-5.566,16.699h-22.91l-7.266,21.738h-17.578
		l7.266-21.738h-11.66l-7.266,21.738h-17.578l7.266-21.738h-22.91l5.566-16.699H176.398z M197.609,384.679l-3.633,11.016h11.66
		l3.633-11.016H197.609z"/>
</g>
</svg>
